<svg width="25" height="25" viewBox="0 0 25 25" fill="none" xmlns="http://www.w3.org/2000/svg">
<path d="M19.2707 20.8333C19.2707 20.9714 19.2158 21.1039 19.1181 21.2016C19.0204 21.2993 18.888 21.3541 18.7498 21.3541H12.779C12.481 21.9258 12.1029 22.4519 11.6561 22.9166H18.7498C19.3024 22.9166 19.8323 22.6972 20.223 22.3065C20.6137 21.9158 20.8332 21.3858 20.8332 20.8333V10.2375C20.8331 9.68499 20.6135 9.15517 20.2228 8.76456L14.1509 2.69373L14.0998 2.65206L14.0623 2.62081C13.9908 2.553 13.9146 2.49034 13.8342 2.43331C13.8071 2.41677 13.7793 2.40148 13.7509 2.38748L13.7009 2.36248L13.6488 2.33227C13.5925 2.29998 13.5353 2.26665 13.4759 2.24165C13.2683 2.1592 13.0488 2.11066 12.8259 2.0979C12.805 2.09651 12.7846 2.09408 12.7644 2.0906L12.679 2.08331H6.24984C5.6973 2.08331 5.1674 2.30281 4.7767 2.69351C4.386 3.08421 4.1665 3.61411 4.1665 4.16665V11.9771C4.66783 11.7684 5.19243 11.6208 5.729 11.5375V4.16665C5.729 4.02851 5.78388 3.89604 5.88155 3.79836C5.97923 3.70069 6.1117 3.64581 6.24984 3.64581H12.4998V8.33331C12.4998 8.88585 12.7193 9.41575 13.11 9.80645C13.5007 10.1972 14.0306 10.4166 14.5832 10.4166H19.2707V20.8333ZM14.0623 4.81352L18.1019 8.85415H14.5832C14.445 8.85415 14.3126 8.79927 14.2149 8.7016C14.1172 8.60392 14.0623 8.47145 14.0623 8.33331V4.81352Z" fill="white"/>
<path d="M12.4998 18.2292C12.4998 18.9815 12.3516 19.7265 12.0637 20.4216C11.7758 21.1167 11.3538 21.7483 10.8218 22.2803C10.2898 22.8123 9.65822 23.2343 8.96313 23.5222C8.26803 23.8101 7.52304 23.9583 6.77067 23.9583C6.01831 23.9583 5.27331 23.8101 4.57821 23.5222C3.88312 23.2343 3.25154 22.8123 2.71954 22.2803C2.18754 21.7483 1.76553 21.1167 1.47761 20.4216C1.18969 19.7265 1.0415 18.9815 1.0415 18.2292C1.0415 16.7097 1.64511 15.2525 2.71954 14.178C3.79397 13.1036 5.2512 12.5 6.77067 12.5C8.29014 12.5 9.74738 13.1036 10.8218 14.178C11.8962 15.2525 12.4998 16.7097 12.4998 18.2292ZM10.2644 15.7771C10.216 15.7286 10.1586 15.6901 10.0953 15.6638C10.032 15.6376 9.96418 15.6241 9.89567 15.6241C9.82716 15.6241 9.75933 15.6376 9.69605 15.6638C9.63278 15.6901 9.5753 15.7286 9.52692 15.7771L5.729 19.576L4.01442 17.8604C3.91662 17.7626 3.78398 17.7077 3.64567 17.7077C3.50736 17.7077 3.37472 17.7626 3.27692 17.8604C3.17912 17.9582 3.12418 18.0909 3.12418 18.2292C3.12418 18.3675 3.17912 18.5001 3.27692 18.5979L5.36025 20.6812C5.40863 20.7298 5.46611 20.7682 5.52939 20.7945C5.59266 20.8207 5.6605 20.8343 5.729 20.8343C5.79751 20.8343 5.86535 20.8207 5.92862 20.7945C5.9919 20.7682 6.04937 20.7298 6.09775 20.6812L10.2644 16.5146C10.3129 16.4662 10.3514 16.4087 10.3777 16.3455C10.4039 16.2822 10.4174 16.2143 10.4174 16.1458C10.4174 16.0773 10.4039 16.0095 10.3777 15.9462C10.3514 15.8829 10.3129 15.8255 10.2644 15.7771Z" fill="white"/>
</svg>
