<svg width="34" height="34" viewBox="0 0 34 34" fill="none" xmlns="http://www.w3.org/2000/svg">
<path d="M17.0001 22.0645C16.8112 22.0645 16.6341 22.0353 16.4688 21.9767C16.3036 21.9182 16.1501 21.8176 16.0084 21.675L10.9084 16.575C10.6251 16.2916 10.4891 15.9611 10.5004 15.5833C10.5117 15.2055 10.6477 14.875 10.9084 14.5916C11.1917 14.3083 11.5284 14.161 11.9185 14.1496C12.3086 14.1383 12.6448 14.2738 12.9272 14.5562L15.5834 17.2125V7.0833C15.5834 6.68191 15.7194 6.34569 15.9914 6.07463C16.2634 5.80358 16.5996 5.66758 17.0001 5.66663C17.4005 5.66569 17.7372 5.80169 18.0102 6.07463C18.2831 6.34758 18.4186 6.6838 18.4167 7.0833V17.2125L21.073 14.5562C21.3563 14.2729 21.693 14.1369 22.0831 14.1482C22.4731 14.1595 22.8094 14.3074 23.0917 14.5916C23.3515 14.875 23.4875 15.2055 23.4997 15.5833C23.512 15.9611 23.376 16.2916 23.0917 16.575L17.9917 21.675C17.8501 21.8166 17.6966 21.9172 17.5313 21.9767C17.3661 22.0362 17.189 22.0655 17.0001 22.0645ZM8.50008 28.3333C7.72091 28.3333 7.05414 28.0561 6.49975 27.5017C5.94536 26.9473 5.66769 26.2801 5.66675 25.5V22.6666C5.66675 22.2652 5.80275 21.929 6.07475 21.658C6.34675 21.3869 6.68297 21.2509 7.08341 21.25C7.48386 21.249 7.82055 21.385 8.0935 21.658C8.36644 21.9309 8.50197 22.2671 8.50008 22.6666V25.5H25.5001V22.6666C25.5001 22.2652 25.6361 21.929 25.9081 21.658C26.1801 21.3869 26.5163 21.2509 26.9167 21.25C27.3172 21.249 27.6539 21.385 27.9268 21.658C28.1998 21.9309 28.3353 22.2671 28.3334 22.6666V25.5C28.3334 26.2791 28.0562 26.9464 27.5018 27.5017C26.9474 28.057 26.2802 28.3342 25.5001 28.3333H8.50008Z" fill="white"/>
</svg>
