<svg width="25" height="24" viewBox="0 0 25 24" fill="none" xmlns="http://www.w3.org/2000/svg">
<g clip-path="url(#clip0_20_2787)">
<path d="M12.5 0C13.6475 0 14.7542 0.140625 15.8203 0.421875C16.8864 0.703125 17.8792 1.10938 18.7988 1.64062C19.7184 2.17188 20.5607 2.79688 21.3257 3.51562C22.0907 4.23438 22.7458 5.04297 23.291 5.94141C23.8363 6.83984 24.2554 7.79688 24.5483 8.8125C24.8413 9.82812 24.9919 10.8906 25 12C25 13.1016 24.8535 14.1641 24.5605 15.1875C24.2676 16.2109 23.8444 17.1641 23.291 18.0469C22.7376 18.9297 22.0866 19.7383 21.3379 20.4727C20.5892 21.207 19.7469 21.8359 18.811 22.3594C17.8752 22.8828 16.8783 23.2852 15.8203 23.5664C14.7624 23.8477 13.6556 23.9922 12.5 24C11.3525 24 10.2458 23.8594 9.17969 23.5781C8.11361 23.2969 7.12077 22.8906 6.20117 22.3594C5.28158 21.8281 4.43929 21.2031 3.67432 20.4844C2.90934 19.7656 2.25423 18.957 1.70898 18.0586C1.16374 17.1602 0.744629 16.2031 0.45166 15.1875C0.158691 14.1719 0.00813802 13.1094 0 12C0 10.8984 0.146484 9.83594 0.439453 8.8125C0.732422 7.78906 1.1556 6.83594 1.70898 5.95312C2.26237 5.07031 2.91341 4.26172 3.66211 3.52734C4.41081 2.79297 5.25309 2.16406 6.18896 1.64062C7.12484 1.11719 8.12175 0.714844 9.17969 0.433594C10.2376 0.152344 11.3444 0.0078125 12.5 0ZM19.8608 8.02734L18.2007 6.43359L10.1562 14.1562L6.79932 10.9336L5.13916 12.5273L10.1562 17.3438L19.8608 8.02734Z" fill="white"/>
</g>
<defs>
<clipPath id="clip0_20_2787">
<rect width="25" height="24" fill="white"/>
</clipPath>
</defs>
</svg>
