<svg width="36" height="36" viewBox="0 0 36 36" fill="none" xmlns="http://www.w3.org/2000/svg">
<path d="M27.75 30C27.75 30.1989 27.671 30.3897 27.5303 30.5303C27.3897 30.671 27.1989 30.75 27 30.75H18.402C17.9729 31.5732 17.4284 32.3308 16.785 33H27C27.7956 33 28.5587 32.6839 29.1213 32.1213C29.6839 31.5587 30 30.7956 30 30V14.742C29.9998 13.9464 29.6836 13.1835 29.121 12.621L20.3775 3.879L20.304 3.819L20.25 3.774C20.147 3.67634 20.0372 3.58612 19.9215 3.504C19.8825 3.48018 19.8425 3.45816 19.8015 3.438L19.7295 3.402L19.6545 3.3585C19.5735 3.312 19.491 3.264 19.4055 3.228C19.1066 3.10928 18.7906 3.03938 18.4695 3.021C18.4395 3.019 18.41 3.0155 18.381 3.0105L18.258 3H9C8.20435 3 7.44129 3.31607 6.87868 3.87868C6.31607 4.44129 6 5.20435 6 6V17.247C6.7219 16.9465 7.47733 16.734 8.25 16.614V6C8.25 5.80109 8.32902 5.61032 8.46967 5.46967C8.61032 5.32902 8.80109 5.25 9 5.25H18V12C18 12.7956 18.3161 13.5587 18.8787 14.1213C19.4413 14.6839 20.2044 15 21 15H27.75V30ZM20.25 6.9315L26.067 12.75H21C20.8011 12.75 20.6103 12.671 20.4697 12.5303C20.329 12.3897 20.25 12.1989 20.25 12V6.9315Z" fill="#676767"/>
<path d="M18 26.25C18 27.3334 17.7866 28.4062 17.372 29.4071C16.9574 30.4081 16.3497 31.3175 15.5836 32.0836C14.8175 32.8497 13.9081 33.4574 12.9071 33.872C11.9062 34.2866 10.8334 34.5 9.75 34.5C8.66659 34.5 7.5938 34.2866 6.59286 33.872C5.59193 33.4574 4.68245 32.8497 3.91637 32.0836C3.15029 31.3175 2.5426 30.4081 2.12799 29.4071C1.71339 28.4062 1.5 27.3334 1.5 26.25C1.5 24.062 2.36919 21.9635 3.91637 20.4164C5.46354 18.8692 7.56196 18 9.75 18C11.938 18 14.0365 18.8692 15.5836 20.4164C17.1308 21.9635 18 24.062 18 26.25ZM14.781 22.719C14.7113 22.6492 14.6286 22.5937 14.5374 22.5559C14.4463 22.5181 14.3487 22.4987 14.25 22.4987C14.1513 22.4987 14.0537 22.5181 13.9626 22.5559C13.8714 22.5937 13.7887 22.6492 13.719 22.719L8.25 28.1895L5.781 25.719C5.64017 25.5782 5.44916 25.4991 5.25 25.4991C5.05084 25.4991 4.85983 25.5782 4.719 25.719C4.57817 25.8598 4.49905 26.0508 4.49905 26.25C4.49905 26.4492 4.57817 26.6402 4.719 26.781L7.719 29.781C7.78867 29.8508 7.87143 29.9063 7.96255 29.9441C8.05367 29.9819 8.15135 30.0013 8.25 30.0013C8.34865 30.0013 8.44633 29.9819 8.53745 29.9441C8.62857 29.9063 8.71133 29.8508 8.781 29.781L14.781 23.781C14.8508 23.7113 14.9063 23.6286 14.9441 23.5374C14.9819 23.4463 15.0013 23.3487 15.0013 23.25C15.0013 23.1513 14.9819 23.0537 14.9441 22.9626C14.9063 22.8714 14.8508 22.7887 14.781 22.719Z" fill="#676767"/>
</svg>
