<svg width="33" height="33" viewBox="0 0 33 33" fill="none" xmlns="http://www.w3.org/2000/svg">
<path d="M8.25 2.0625C7.42949 2.0625 6.64258 2.38845 6.06239 2.96864C5.4822 3.54883 5.15625 4.33574 5.15625 5.15625V15.6791C5.80572 15.304 6.49827 15.009 7.21875 14.8005V5.15625C7.21875 4.88275 7.3274 4.62044 7.5208 4.42705C7.71419 4.23365 7.9765 4.125 8.25 4.125H17.5312V9.28125C17.5312 10.1018 17.8572 10.8887 18.4374 11.4689C19.0176 12.0491 19.8045 12.375 20.625 12.375H25.7812V27.8438C25.7812 28.1173 25.6726 28.3796 25.4792 28.573C25.2858 28.7664 25.0235 28.875 24.75 28.875H17.5158C16.9951 29.6537 16.3595 30.3491 15.6307 30.9375H24.75C25.5705 30.9375 26.3574 30.6116 26.9376 30.0314C27.5178 29.4512 27.8438 28.6643 27.8438 27.8438V11.1664C27.8433 10.3463 27.5173 9.55993 26.9373 8.98013L20.9272 2.96794C20.3469 2.38808 19.5602 2.0624 18.7399 2.0625H8.25ZM25.3543 10.3125H20.625C20.3515 10.3125 20.0892 10.2039 19.8958 10.0105C19.7024 9.81706 19.5938 9.55475 19.5938 9.28125V4.55194L25.3543 10.3125ZM17.5312 23.7188C17.5312 21.6675 16.7164 19.7002 15.2659 18.2497C13.8154 16.7992 11.8482 15.9844 9.79688 15.9844C7.74559 15.9844 5.77832 16.7992 4.32785 18.2497C2.87737 19.7002 2.0625 21.6675 2.0625 23.7188C2.0625 25.77 2.87737 27.7373 4.32785 29.1878C5.77832 30.6383 7.74559 31.4531 9.79688 31.4531C11.8482 31.4531 13.8154 30.6383 15.2659 29.1878C16.7164 27.7373 17.5312 25.77 17.5312 23.7188ZM14.6953 23.7188H11.6016C11.3964 23.7188 11.1997 23.6373 11.0547 23.4922C10.9096 23.3472 10.8281 23.1504 10.8281 22.9453C10.8281 22.7402 10.9096 22.5435 11.0547 22.3984C11.1997 22.2534 11.3964 22.1719 11.6016 22.1719H12.4771C12.2583 21.7928 11.9615 21.4644 11.6064 21.2085C11.2512 20.9526 10.8458 20.7749 10.417 20.6873C9.98808 20.5997 9.5455 20.6041 9.11844 20.7002C8.69139 20.7963 8.28959 20.9819 7.93959 21.2448C7.70241 21.4222 7.38891 21.483 7.12491 21.352C6.6165 21.0973 6.47006 20.4342 6.91453 20.0815C7.45152 19.6558 8.07615 19.3542 8.74354 19.1985C9.41093 19.0429 10.1045 19.0369 10.7745 19.1812C11.4444 19.3254 12.0741 19.6163 12.6183 20.0328C13.1625 20.4493 13.6077 20.9812 13.9219 21.5903V20.3672C13.9219 20.1621 14.0034 19.9653 14.1484 19.8203C14.2935 19.6752 14.4902 19.5938 14.6953 19.5938C14.9004 19.5938 15.0972 19.6752 15.2422 19.8203C15.3873 19.9653 15.4688 20.1621 15.4688 20.3672V22.9453C15.4688 23.1504 15.3873 23.3472 15.2422 23.4922C15.0972 23.6373 14.9004 23.7188 14.6953 23.7188ZM12.4534 26.3752C12.7988 26.7207 12.8019 27.2889 12.3977 27.5622C11.8545 27.9299 11.2396 28.1782 10.5935 28.2909C9.94733 28.4036 9.28465 28.378 8.64912 28.2158C8.01359 28.0537 7.41965 27.7586 6.90646 27.3502C6.39327 26.9418 5.97249 26.4292 5.67188 25.8462V27.0703C5.67188 27.2754 5.59039 27.4722 5.44534 27.6172C5.30029 27.7623 5.10357 27.8438 4.89844 27.8438C4.69331 27.8438 4.49658 27.7623 4.35153 27.6172C4.20649 27.4722 4.125 27.2754 4.125 27.0703V24.4922C4.125 24.2871 4.20649 24.0903 4.35153 23.9453C4.49658 23.8002 4.69331 23.7188 4.89844 23.7188H7.99219C8.19732 23.7188 8.39404 23.8002 8.53909 23.9453C8.68414 24.0903 8.76562 24.2871 8.76562 24.4922C8.76562 24.6973 8.68414 24.894 8.53909 25.0391C8.39404 25.1841 8.19732 25.2656 7.99219 25.2656H7.11666C7.32597 25.6282 7.60671 25.9446 7.94186 26.1955C8.27702 26.4464 8.65961 26.6267 9.06649 26.7254C9.47336 26.8242 9.89604 26.8393 10.3089 26.7699C10.7218 26.7005 11.1163 26.548 11.4685 26.3216C11.7779 26.1236 12.1945 26.1154 12.4534 26.3752Z" fill="#676767"/>
</svg>
