<svg width="34" height="34" viewBox="0 0 34 34" fill="none" xmlns="http://www.w3.org/2000/svg">
<path d="M17 29.75C14.025 29.75 11.3924 28.8471 9.10208 27.0413C6.81181 25.2356 5.32431 22.9273 4.63958 20.1167C4.54514 19.7625 4.61597 19.4381 4.85208 19.1434C5.08819 18.8487 5.40694 18.6773 5.80833 18.6292C6.18611 18.5819 6.52847 18.6528 6.83542 18.8417C7.14236 19.0306 7.35486 19.3139 7.47292 19.6917C8.03958 21.8167 9.20833 23.5521 10.9792 24.8979C12.75 26.2437 14.7569 26.9167 17 26.9167C19.7625 26.9167 22.1061 25.9547 24.0309 24.0309C25.9557 22.1071 26.9176 19.7634 26.9167 17C26.9157 14.2366 25.9538 11.8934 24.0309 9.9705C22.108 8.04761 19.7644 7.08522 17 7.08333C15.3708 7.08333 13.8479 7.46111 12.4312 8.21667C11.0146 8.97222 9.82222 10.0111 8.85417 11.3333H11.3333C11.7347 11.3333 12.0714 11.4693 12.3434 11.7413C12.6154 12.0133 12.7509 12.3496 12.75 12.75C12.7491 13.1504 12.6131 13.4871 12.342 13.7601C12.0709 14.033 11.7347 14.1686 11.3333 14.1667H5.66667C5.26528 14.1667 4.92906 14.0307 4.658 13.7587C4.38694 13.4867 4.25094 13.1504 4.25 12.75V7.08333C4.25 6.68194 4.386 6.34572 4.658 6.07467C4.93 5.80361 5.26622 5.66761 5.66667 5.66667C6.06711 5.66572 6.40381 5.80172 6.67675 6.07467C6.94969 6.34761 7.08522 6.68383 7.08333 7.08333V8.99583C8.2875 7.48472 9.75753 6.31597 11.4934 5.48958C13.2293 4.66319 15.0648 4.25 17 4.25C18.7708 4.25 20.4297 4.58669 21.9767 5.26008C23.5237 5.93347 24.8696 6.84203 26.0142 7.98575C27.1589 9.12947 28.0679 10.4753 28.7413 12.0233C29.4147 13.5712 29.7509 15.2301 29.75 17C29.7491 18.7699 29.4128 20.4288 28.7413 21.9767C28.0698 23.5247 27.1608 24.8705 26.0142 26.0142C24.8677 27.158 23.5219 28.067 21.9767 28.7413C20.4316 29.4157 18.7727 29.7519 17 29.75ZM18.4167 16.4333L21.9583 19.975C22.2181 20.2347 22.3479 20.5653 22.3479 20.9667C22.3479 21.3681 22.2181 21.6986 21.9583 21.9583C21.6986 22.2181 21.3681 22.3479 20.9667 22.3479C20.5653 22.3479 20.2347 22.2181 19.975 21.9583L16.0083 17.9917C15.8667 17.85 15.7604 17.6909 15.6896 17.5142C15.6187 17.3376 15.5833 17.1544 15.5833 16.9646V11.3333C15.5833 10.9319 15.7193 10.5957 15.9913 10.3247C16.2633 10.0536 16.5996 9.91761 17 9.91667C17.4004 9.91572 17.7371 10.0517 18.0101 10.3247C18.283 10.5976 18.4186 10.9338 18.4167 11.3333V16.4333Z" fill="#676767"/>
</svg>
