<svg width="24" height="24" viewBox="0 0 24 24" fill="none" xmlns="http://www.w3.org/2000/svg">
<path d="M2.062 12.3481C1.97866 12.1236 1.97866 11.8766 2.062 11.6521C2.8737 9.68397 4.25152 8.00116 6.02077 6.81701C7.79003 5.63287 9.87105 5.00073 12 5.00073C14.129 5.00073 16.21 5.63287 17.9792 6.81701C19.7485 8.00116 21.1263 9.68397 21.938 11.6521C22.0213 11.8766 22.0213 12.1236 21.938 12.3481C21.1263 14.3163 19.7485 15.9991 17.9792 17.1832C16.21 18.3674 14.129 18.9995 12 18.9995C9.87105 18.9995 7.79003 18.3674 6.02077 17.1832C4.25152 15.9991 2.8737 14.3163 2.062 12.3481Z" stroke="#6CC5CA" stroke-width="2" stroke-linecap="round" stroke-linejoin="round"/>
<path d="M12 15.0001C13.6569 15.0001 15 13.657 15 12.0001C15 10.3433 13.6569 9.00012 12 9.00012C10.3431 9.00012 9 10.3433 9 12.0001C9 13.657 10.3431 15.0001 12 15.0001Z" stroke="#6CC5CA" stroke-width="2" stroke-linecap="round" stroke-linejoin="round"/>
</svg>
